<?xml version="1.0" standalone="no"?>
<!DOCTYPE svg PUBLIC "-//W3C//DTD SVG 20010904//EN"
 "http://www.w3.org/TR/2001/REC-SVG-20010904/DTD/svg10.dtd">
<svg version="1.0" xmlns="http://www.w3.org/2000/svg"
 width="512.000000pt" height="512.000000pt" viewBox="0 0 512.000000 512.000000"
 preserveAspectRatio="xMidYMid meet">
<metadata>
Created by potrace 1.11, written by Peter Selinger 2001-2013
</metadata>
<g transform="translate(0.000000,512.000000) scale(0.100000,-0.100000)"
fill="#000000" stroke="none">
<path d="M1499 5105 c-33 -18 -52 -66 -39 -99 5 -13 22 -39 38 -57 89 -105
127 -187 126 -279 0 -92 -32 -155 -139 -276 -110 -125 -160 -200 -185 -282
-50 -160 -7 -326 125 -488 83 -102 142 -117 180 -43 22 42 15 64 -45 139 -117
147 -143 269 -82 392 21 42 63 96 125 161 144 151 186 232 195 373 5 96 -8
165 -48 248 -51 107 -162 227 -209 226 -9 -1 -28 -7 -42 -15z"/>
<path d="M2372 5095 c-42 -36 -43 -78 -2 -131 110 -143 145 -221 138 -313 -6
-83 -45 -154 -146 -266 -104 -115 -156 -196 -184 -289 -48 -157 9 -340 154
-501 48 -52 59 -59 93 -59 29 0 43 6 61 28 37 43 31 70 -37 160 -84 110 -111
173 -111 257 0 95 31 154 152 289 152 169 192 251 193 400 1 139 -51 264 -157
376 -74 79 -107 89 -154 49z"/>
<path d="M3342 5095 c-47 -39 -44 -79 11 -147 100 -125 132 -201 125 -296 -6
-85 -43 -151 -156 -279 -108 -123 -153 -197 -178 -294 -39 -152 20 -331 158
-481 67 -73 96 -81 138 -40 46 46 40 75 -30 168 -92 121 -105 153 -105 254 0
113 21 154 149 290 120 127 169 206 192 308 37 165 -25 348 -163 484 -62 61
-98 69 -141 33z"/>
<path d="M337 3166 c-49 -18 -74 -41 -100 -91 -19 -38 -20 -51 -13 -257 22
-718 149 -1190 420 -1568 146 -204 383 -396 618 -500 l78 -35 -563 -5 -562 -5
-52 -29 c-164 -91 -162 -307 3 -386 40 -20 100 -26 631 -64 l586 -42 21 -28
c61 -80 101 -116 144 -133 44 -17 100 -18 837 -18 l790 0 48 24 c47 23 68 44
110 111 16 24 33 37 57 43 19 4 305 25 636 46 553 36 604 41 647 61 170 80
159 317 -18 397 -37 17 -85 18 -593 21 l-553 3 128 64 c161 82 291 174 410
294 l94 93 82 18 c322 71 582 273 732 569 44 88 93 252 111 373 30 207 4 394
-81 563 -72 145 -177 247 -302 291 -46 16 -52 22 -57 52 -7 48 -43 97 -91 124
l-40 23 -2060 2 c-1720 2 -2066 0 -2098 -11z m4113 -293 c0 -239 -30 -537 -76
-763 -132 -644 -452 -1048 -993 -1255 -267 -101 -557 -145 -965 -145 -641 0
-1078 130 -1422 421 -317 269 -506 703 -574 1319 -9 85 -30 435 -30 518 l0 32
2030 0 2030 0 0 -127z m289 -142 c99 -99 152 -252 152 -436 1 -390 -179 -710
-486 -863 -114 -56 -113 -57 -55 57 134 267 206 530 250 906 8 74 29 354 30
403 0 21 57 -14 109 -67z m-127 -2218 c23 -21 23 -50 0 -62 -10 -6 -290 -28
-621 -51 -382 -26 -617 -46 -642 -54 -56 -20 -115 -63 -140 -102 -42 -68 15
-64 -830 -64 l-767 0 -57 65 c-57 65 -91 90 -149 106 -17 5 -282 27 -590 49
-307 22 -567 45 -577 51 -23 12 -25 42 -3 63 14 14 226 16 2186 16 2007 0
2173 -1 2190 -17z"/>
<path d="M702 2373 c-7 -3 -20 -19 -28 -35 -20 -38 -15 -77 26 -246 118 -484
364 -811 741 -986 156 -72 412 -144 470 -131 61 14 88 88 49 138 -16 20 -42
30 -137 52 -264 61 -434 147 -592 299 -177 170 -293 399 -371 731 -37 156 -55
186 -112 184 -18 0 -39 -3 -46 -6z"/>
</g>
</svg>
